<svg version="1.1" id="Layer_1" xmlns="http://www.w3.org/2000/svg" x="0" y="0" preserveAspectRatio="xMinYMin meet" viewBox="0 0 837.1 58.1"
    xml:space="preserve">
    <style>
        .st0 {
            fill: #777677;
        }
    </style>
    <path class="st0"
        d="M50.6 42.3v8.2c-5.5 3-11.8 4.5-18.9 4.5-5.8 0-10.7-1.2-14.8-3.5-4-2.3-7.3-5.6-9.6-9.7-2.4-4.1-3.5-8.5-3.5-13.3 0-7.6 2.7-14 8.1-19.1 5.4-5.2 12.1-7.8 20-7.8C37.2 1.6 43.3 3 50 5.8v8c-6.1-3.4-12-5.2-17.8-5.2-6 0-10.9 1.9-14.8 5.7-3.9 3.8-5.9 8.5-5.9 14.2 0 5.7 1.9 10.4 5.8 14.1 3.9 3.7 8.8 5.5 14.9 5.5 6.2 0 12.4-1.9 18.4-5.8M82.9 8.7c-5.9 0-10.8 1.9-14.6 5.6-3.8 3.7-5.7 8.5-5.7 14.3 0 5.6 1.9 10.3 5.8 14 3.8 3.7 8.6 5.6 14.4 5.6 5.8 0 10.6-1.9 14.5-5.7 3.9-3.8 5.8-8.5 5.8-14.2 0-5.5-1.9-10.2-5.8-13.9-4-3.9-8.8-5.7-14.4-5.7m-.3-7.1c8 0 14.7 2.6 20 7.6 5.4 5.1 8 11.5 8 19.1 0 7.7-2.7 14-8.1 19.1-5.4 5-12.2 7.5-20.4 7.5-7.8 0-14.3-2.5-19.5-7.5-5.2-5-7.8-11.3-7.8-18.9 0-7.8 2.6-14.2 7.9-19.3 5.2-5.1 11.8-7.6 19.9-7.6M116.4 2.4h7.4v45.3h23.4v6.7h-30.8zM151.8 2.4h7.4v45.3h23.5v6.7h-30.9zM187.3 2.4h29.5V9h-22.1v15.9H216v6.6h-21.3v16.3h22.8v6.6h-30.2zM251.7 28.7H269v22c-6.4 2.8-12.7 4.2-19 4.2-8.6 0-15.5-2.5-20.6-7.6-5.1-5-7.7-11.2-7.7-18.6 0-7.8 2.7-14.3 8-19.4 5.3-5.2 12-7.8 20-7.8 2.9 0 5.7.3 8.3 1 2.6.6 5.9 1.8 10 3.4v7.6c-6.2-3.6-12.3-5.4-18.4-5.4-5.7 0-10.5 1.9-14.3 5.8-3.9 3.9-5.8 8.7-5.8 14.3 0 5.9 1.9 10.8 5.8 14.5 3.9 3.8 8.9 5.6 15 5.6 3 0 6.5-.7 10.7-2l.7-.2V35.3h-10v-6.6zM276.9 2.4h29.5V9h-22.1v15.9h21.3v6.6h-21.3v16.3h22.8v6.6h-30.2zM353.6 18.1c-2.8-2.7-6.5-4.1-10.8-4.1-4.3 0-7.9 1.4-10.7 4.1-2.8 2.7-4.2 6.2-4.2 10.4 0 4.1 1.4 7.5 4.2 10.2 2.8 2.7 6.3 4.1 10.5 4.1 4.4 0 8.1-1.4 10.9-4.1 2.9-2.7 4.4-6.1 4.4-10.3 0-4.1-1.4-7.6-4.3-10.3M350 35.3c-1.9 1.9-4.2 2.8-7.1 2.8-2.8 0-5.2-.9-7.1-2.8-1.9-1.9-2.8-4.1-2.8-6.9 0-2.8 1-5.2 2.8-7 1.9-1.8 4.3-2.7 7.2-2.7 2.8 0 5.1.9 7 2.8 1.9 1.8 2.8 4.1 2.8 6.8.1 2.8-.9 5.1-2.8 7M360.6 42.4h5V29.8H376v-4.5h-10.4v-6.4H376v-4.5h-15.4zM406.9 47.7V2.4h-7.4v52h30.9v-6.7zM435.1 2.4h7.4v52h-7.4zM465 31.3h-7v16.5h7.4c4.1 0 6.8-.3 8.3-1 1.5-.6 2.6-1.6 3.5-3 .9-1.3 1.3-2.8 1.3-4.3 0-1.6-.5-3.1-1.4-4.4-.9-1.3-2.3-2.3-4-2.9-1.6-.6-4.4-.9-8.1-.9M464.5 9H458v15.7h5c4 0 6.8-.7 8.5-2.3 1.7-1.5 2.5-3.5 2.5-5.9.1-5-3.1-7.5-9.5-7.5m3.8 45.4h-17.7v-52h13.7c4.3 0 7.7.6 10.1 1.7 2.4 1.1 4.2 2.7 5.5 4.8 1.3 2 1.9 4.4 1.9 7 0 5.1-2.7 8.8-8 11 3.8.7 6.8 2.3 9.1 4.7 2.2 2.4 3.4 5.3 3.4 8.6 0 2.7-.7 5-2 7.1-1.4 2.1-3.4 3.8-6 5.1-2.7 1.3-6 2-10 2M491.7 2.4h29.4V9h-22v15.9h21.3v6.6h-21.3v16.3h22.7v6.6h-30.1zM537.7 8.7h-2.2v16.5h2.8c3.8 0 6.3-.3 7.8-1 1.4-.6 2.5-1.6 3.3-2.9.8-1.3 1.2-2.8 1.2-4.5 0-1.6-.5-3.1-1.3-4.5-.8-1.3-2.1-2.3-3.7-2.8-1.6-.6-4.2-.8-7.9-.8m-9.6 45.7v-52h13c5.2 0 9.4 1.3 12.5 3.9 3.1 2.6 4.6 6.1 4.6 10.6 0 3-.8 5.7-2.3 7.9-1.5 2.2-3.7 3.9-6.5 5 1.7 1.1 3.3 2.6 4.9 4.5 1.6 1.9 3.8 5.2 6.7 9.9 1.8 3 3.3 5.2 4.4 6.7l2.8 3.7h-8.9L557 51c-.1-.1-.2-.3-.4-.6l-1.5-2-2.3-3.8-2.5-4.1c-1.5-2.1-2.9-3.9-4.2-5.1-1.3-1.3-2.4-2.2-3.5-2.7-1-.6-2.8-.8-5.2-.8h-1.9v22.6l-7.4-.1z">
    </path>
    <path class="st0"
        d="M599.6 32.3l-8.5-18.8-7.8 18.8h16.3zM588.5 2h5.2L617 54.4h-7.6l-6.9-15.5h-22.1l-6.5 15.5h-7.7L588.5 2zM620.9 2.4h7.5v45.3h23.4v6.7h-30.9zM705.6 32.3l-8.5-18.8-7.8 18.8h16.3zM694.5 2h5.2L723 54.4h-7.6l-6.9-15.5h-22.1l-6.5 15.5h-7.6L694.5 2zM736.8 8.7h-2.2v16.5h2.8c3.8 0 6.4-.3 7.8-1 1.4-.6 2.5-1.6 3.3-2.9.8-1.3 1.2-2.8 1.2-4.5 0-1.6-.4-3.1-1.3-4.5-.9-1.3-2.1-2.3-3.7-2.8-1.7-.6-4.3-.8-7.9-.8m-9.6 45.7v-52h13c5.2 0 9.4 1.3 12.5 3.9 3.1 2.6 4.6 6.1 4.6 10.6 0 3-.8 5.7-2.3 7.9-1.5 2.2-3.7 3.9-6.6 5 1.7 1.1 3.3 2.6 4.9 4.5 1.6 1.9 3.8 5.2 6.7 9.9 1.8 3 3.3 5.2 4.4 6.7l2.8 3.7h-8.9l-2.3-3.4c-.1-.1-.2-.3-.5-.6l-1.5-2-2.3-3.8-2.5-4.1c-1.5-2.1-2.9-3.9-4.2-5.1-1.3-1.3-2.4-2.2-3.4-2.7-1-.6-2.8-.8-5.2-.8h-1.9v22.6l-7.3-.3zM759.8 2.4h43.6V9h-18.2v45.4h-7.5V9h-17.9zM821.2 32.6l-5.7-3.5c-3.6-2.2-6.1-4.3-7.6-6.4-1.5-2.1-2.3-4.5-2.3-7.3 0-4.1 1.4-7.4 4.3-10 2.8-2.6 6.5-3.8 11-3.8 4.3 0 8.3 1.2 11.9 3.7v8.4c-3.7-3.6-7.8-5.4-12.1-5.4-2.4 0-4.4.6-6 1.7-1.6 1.1-2.3 2.5-2.3 4.3 0 1.5.6 3 1.7 4.4 1.2 1.4 3 2.8 5.6 4.3l5.7 3.4c6.3 3.8 9.5 8.6 9.5 14.5 0 4.2-1.4 7.6-4.2 10.2-2.8 2.6-6.4 3.9-10.9 3.9-5.1 0-9.8-1.6-14-4.9v-9.4c4 5.2 8.7 7.8 13.9 7.8 2.3 0 4.3-.6 5.8-2 1.6-1.3 2.3-2.9 2.3-4.9.3-3.2-2-6.2-6.6-9">
    </path>
</svg>