<svg width="94" height="100" viewBox="0 0 94 100" fill="none" xmlns="http://www.w3.org/2000/svg">
<path d="M30.4489 9.02379L22.6076 16.869L18.336 12.6071L16.6582 14.2857L22.6076 20.2381L32.1266 10.7143L30.4489 9.02379ZM24.9874 2.38095C18.4193 2.38095 13.0886 7.71427 13.0886 14.2857C13.0886 20.8571 18.4193 26.1904 24.9874 26.1904C31.5555 26.1904 36.8861 20.8571 36.8861 14.2857C36.8861 7.71427 31.5555 2.38095 24.9874 2.38095ZM24.9874 23.8095C19.7281 23.8095 15.4684 19.5476 15.4684 14.2857C15.4684 9.02379 19.7281 4.7619 24.9874 4.7619C30.2466 4.7619 34.5063 9.02379 34.5063 14.2857C34.5063 19.5476 30.2466 23.8095 24.9874 23.8095Z" fill="#999999"/>
<rect x="5.94934" y="35.7143" width="80.9114" height="28.5714" fill="#FFF6A4"/>
<path d="M54.6203 17.7619H53.6711V11.6564C53.6711 11.1486 53.6867 10.6682 53.718 10.215C53.636 10.2971 53.5442 10.383 53.4426 10.4728C53.341 10.5627 52.8762 10.9435 52.0481 11.6154L51.5324 10.9474L53.8 9.1955H54.6203V17.7619ZM63.5617 13.467C63.5617 14.9474 63.3274 16.0529 62.8586 16.7834C62.3938 17.5139 61.6809 17.8791 60.7199 17.8791C59.7981 17.8791 59.0969 17.506 58.6164 16.7599C58.136 16.0099 57.8957 14.9123 57.8957 13.467C57.8957 11.9748 58.1281 10.8674 58.593 10.1447C59.0578 9.42206 59.7668 9.06073 60.7199 9.06073C61.6496 9.06073 62.3547 9.43768 62.8352 10.1916C63.3195 10.9455 63.5617 12.0373 63.5617 13.467ZM58.8801 13.467C58.8801 14.7131 59.0266 15.6213 59.3195 16.1916C59.6125 16.758 60.0793 17.0412 60.7199 17.0412C61.3684 17.0412 61.8371 16.7541 62.1262 16.1799C62.4192 15.6017 62.5656 14.6974 62.5656 13.467C62.5656 12.2365 62.4192 11.3361 62.1262 10.7658C61.8371 10.1916 61.3684 9.90448 60.7199 9.90448C60.0793 9.90448 59.6125 10.1877 59.3195 10.7541C59.0266 11.3166 58.8801 12.2209 58.8801 13.467ZM70.4289 13.467C70.4289 14.9474 70.1945 16.0529 69.7258 16.7834C69.261 17.5139 68.5481 17.8791 67.5871 17.8791C66.6652 17.8791 65.9641 17.506 65.4836 16.7599C65.0031 16.0099 64.7629 14.9123 64.7629 13.467C64.7629 11.9748 64.9953 10.8674 65.4602 10.1447C65.925 9.42206 66.634 9.06073 67.5871 9.06073C68.5168 9.06073 69.2219 9.43768 69.7024 10.1916C70.1867 10.9455 70.4289 12.0373 70.4289 13.467ZM65.7473 13.467C65.7473 14.7131 65.8938 15.6213 66.1867 16.1916C66.4797 16.758 66.9465 17.0412 67.5871 17.0412C68.2356 17.0412 68.7043 16.7541 68.9934 16.1799C69.2863 15.6017 69.4328 14.6974 69.4328 13.467C69.4328 12.2365 69.2863 11.3361 68.9934 10.7658C68.7043 10.1916 68.2356 9.90448 67.5871 9.90448C66.9465 9.90448 66.4797 10.1877 66.1867 10.7541C65.8938 11.3166 65.7473 12.2209 65.7473 13.467ZM72.4504 11.7502C72.4504 12.4142 72.5227 12.9123 72.6672 13.2443C72.8117 13.5764 73.0461 13.7424 73.3703 13.7424C74.011 13.7424 74.3313 13.0783 74.3313 11.7502C74.3313 10.4299 74.011 9.76971 73.3703 9.76971C73.0461 9.76971 72.8117 9.93378 72.6672 10.2619C72.5227 10.59 72.4504 11.0861 72.4504 11.7502ZM75.134 11.7502C75.134 12.6408 74.9836 13.3146 74.6828 13.7717C74.386 14.2248 73.9485 14.4514 73.3703 14.4514C72.8235 14.4514 72.3977 14.2189 72.093 13.7541C71.7922 13.2892 71.6418 12.6213 71.6418 11.7502C71.6418 10.8635 71.7863 10.1955 72.0754 9.74628C72.3684 9.29706 72.8 9.07245 73.3703 9.07245C73.9367 9.07245 74.3723 9.30487 74.677 9.76971C74.9817 10.2346 75.134 10.8947 75.134 11.7502ZM77.6067 15.1838C77.6067 15.8517 77.6789 16.3517 77.8235 16.6838C77.968 17.0119 78.2043 17.176 78.5324 17.176C78.8606 17.176 79.1027 17.0139 79.259 16.6896C79.4152 16.3615 79.4934 15.8596 79.4934 15.1838C79.4934 14.5158 79.4152 14.0217 79.259 13.7014C79.1027 13.3771 78.8606 13.215 78.5324 13.215C78.2043 13.215 77.968 13.3771 77.8235 13.7014C77.6789 14.0217 77.6067 14.5158 77.6067 15.1838ZM80.2961 15.1838C80.2961 16.0705 80.1457 16.7424 79.8449 17.1994C79.5481 17.6525 79.1106 17.8791 78.5324 17.8791C77.9777 17.8791 77.55 17.6467 77.2492 17.1818C76.9524 16.717 76.8039 16.051 76.8039 15.1838C76.8039 14.2971 76.9485 13.6291 77.2375 13.1799C77.5305 12.7307 77.9621 12.506 78.5324 12.506C79.0871 12.506 79.5188 12.7365 79.8274 13.1974C80.1399 13.6545 80.2961 14.3166 80.2961 15.1838ZM78.7844 9.1955L74.0324 17.7619H73.1711L77.9231 9.1955H78.7844Z" fill="#999999"/>
<path d="M60.5617 48.2438C61.4641 48.2438 62.1731 48.4684 62.6887 48.9176C63.2082 49.3629 63.468 49.9742 63.468 50.7516C63.468 51.6383 63.1848 52.3336 62.6184 52.8375C62.0559 53.3414 61.2785 53.5934 60.2863 53.5934C59.3215 53.5934 58.5852 53.4391 58.0774 53.1305V52.193C58.3508 52.3688 58.6906 52.5074 59.0969 52.609C59.5031 52.7067 59.9035 52.7555 60.2981 52.7555C60.9856 52.7555 61.5188 52.5934 61.8977 52.2692C62.2805 51.9449 62.4719 51.4762 62.4719 50.8629C62.4719 49.6676 61.7395 49.0699 60.2746 49.0699C59.9035 49.0699 59.4074 49.1266 58.7863 49.2399L58.2824 48.9176L58.6047 44.9098H62.8645V45.8063H59.4367L59.2199 48.3785C59.6692 48.2887 60.1164 48.2438 60.5617 48.2438ZM70.4289 49.1813C70.4289 50.6617 70.1945 51.7672 69.7258 52.4977C69.261 53.2281 68.5481 53.5934 67.5871 53.5934C66.6652 53.5934 65.9641 53.2203 65.4836 52.4742C65.0031 51.7242 64.7629 50.6266 64.7629 49.1813C64.7629 47.6891 64.9953 46.5817 65.4602 45.859C65.925 45.1364 66.634 44.775 67.5871 44.775C68.5168 44.775 69.2219 45.152 69.7024 45.9059C70.1867 46.6598 70.4289 47.7516 70.4289 49.1813ZM65.7473 49.1813C65.7473 50.4274 65.8938 51.3356 66.1867 51.9059C66.4797 52.4723 66.9465 52.7555 67.5871 52.7555C68.2356 52.7555 68.7043 52.4684 68.9934 51.8942C69.2863 51.316 69.4328 50.4117 69.4328 49.1813C69.4328 47.9508 69.2863 47.0504 68.9934 46.4801C68.7043 45.9059 68.2356 45.6188 67.5871 45.6188C66.9465 45.6188 66.4797 45.902 66.1867 46.4684C65.8938 47.0309 65.7473 47.9352 65.7473 49.1813ZM72.4504 47.4645C72.4504 48.1285 72.5227 48.6266 72.6672 48.9586C72.8117 49.2906 73.0461 49.4567 73.3703 49.4567C74.011 49.4567 74.3313 48.7926 74.3313 47.4645C74.3313 46.1442 74.011 45.484 73.3703 45.484C73.0461 45.484 72.8117 45.6481 72.6672 45.9762C72.5227 46.3043 72.4504 46.8004 72.4504 47.4645ZM75.134 47.4645C75.134 48.3551 74.9836 49.0289 74.6828 49.486C74.386 49.9391 73.9485 50.1656 73.3703 50.1656C72.8235 50.1656 72.3977 49.9332 72.093 49.4684C71.7922 49.0035 71.6418 48.3356 71.6418 47.4645C71.6418 46.5778 71.7863 45.9098 72.0754 45.4606C72.3684 45.0114 72.8 44.7867 73.3703 44.7867C73.9367 44.7867 74.3723 45.0192 74.677 45.484C74.9817 45.9489 75.134 46.609 75.134 47.4645ZM77.6067 50.8981C77.6067 51.566 77.6789 52.066 77.8235 52.3981C77.968 52.7262 78.2043 52.8903 78.5324 52.8903C78.8606 52.8903 79.1027 52.7281 79.259 52.4039C79.4152 52.0758 79.4934 51.5739 79.4934 50.8981C79.4934 50.2301 79.4152 49.736 79.259 49.4156C79.1027 49.0914 78.8606 48.9293 78.5324 48.9293C78.2043 48.9293 77.968 49.0914 77.8235 49.4156C77.6789 49.736 77.6067 50.2301 77.6067 50.8981ZM80.2961 50.8981C80.2961 51.7848 80.1457 52.4567 79.8449 52.9137C79.5481 53.3668 79.1106 53.5934 78.5324 53.5934C77.9777 53.5934 77.55 53.361 77.2492 52.8961C76.9524 52.4313 76.8039 51.7653 76.8039 50.8981C76.8039 50.0114 76.9485 49.3434 77.2375 48.8942C77.5305 48.4449 77.9621 48.2203 78.5324 48.2203C79.0871 48.2203 79.5188 48.4508 79.8274 48.9117C80.1399 49.3688 80.2961 50.0309 80.2961 50.8981ZM78.7844 44.9098L74.0324 53.4762H73.1711L77.9231 44.9098H78.7844Z" fill="black"/>
<path d="M70.429 84.8956C70.429 86.376 70.1946 87.4815 69.7259 88.212C69.2611 88.9424 68.5482 89.3077 67.5872 89.3077C66.6653 89.3077 65.9642 88.9346 65.4837 88.1885C65.0032 87.4385 64.763 86.3409 64.763 84.8956C64.763 83.4034 64.9954 82.296 65.4603 81.5733C65.9251 80.8506 66.6341 80.4893 67.5872 80.4893C68.5169 80.4893 69.222 80.8663 69.7025 81.6202C70.1868 82.3741 70.429 83.4659 70.429 84.8956ZM65.7474 84.8956C65.7474 86.1417 65.8939 87.0499 66.1868 87.6202C66.4798 88.1866 66.9466 88.4698 67.5872 88.4698C68.2357 88.4698 68.7044 88.1827 68.9935 87.6085C69.2864 87.0303 69.4329 86.126 69.4329 84.8956C69.4329 83.6651 69.2864 82.7647 68.9935 82.1944C68.7044 81.6202 68.2357 81.3331 67.5872 81.3331C66.9466 81.3331 66.4798 81.6163 66.1868 82.1827C65.8939 82.7452 65.7474 83.6495 65.7474 84.8956ZM72.4505 83.1788C72.4505 83.8428 72.5228 84.3409 72.6673 84.6729C72.8118 85.0049 73.0462 85.171 73.3704 85.171C74.0111 85.171 74.3314 84.5069 74.3314 83.1788C74.3314 81.8585 74.0111 81.1983 73.3704 81.1983C73.0462 81.1983 72.8118 81.3624 72.6673 81.6905C72.5228 82.0186 72.4505 82.5147 72.4505 83.1788ZM75.1341 83.1788C75.1341 84.0694 74.9837 84.7432 74.6829 85.2003C74.3861 85.6534 73.9486 85.8799 73.3704 85.8799C72.8236 85.8799 72.3978 85.6475 72.0931 85.1827C71.7923 84.7178 71.6419 84.0499 71.6419 83.1788C71.6419 82.2921 71.7864 81.6241 72.0755 81.1749C72.3685 80.7256 72.8001 80.501 73.3704 80.501C73.9368 80.501 74.3724 80.7335 74.6771 81.1983C74.9818 81.6631 75.1341 82.3233 75.1341 83.1788ZM77.6068 86.6124C77.6068 87.2803 77.679 87.7803 77.8236 88.1124C77.9681 88.4405 78.2044 88.6046 78.5325 88.6046C78.8607 88.6046 79.1028 88.4424 79.2591 88.1182C79.4153 87.7901 79.4935 87.2881 79.4935 86.6124C79.4935 85.9444 79.4153 85.4503 79.2591 85.1299C79.1028 84.8057 78.8607 84.6436 78.5325 84.6436C78.2044 84.6436 77.9681 84.8057 77.8236 85.1299C77.679 85.4503 77.6068 85.9444 77.6068 86.6124ZM80.2962 86.6124C80.2962 87.4991 80.1458 88.171 79.845 88.628C79.5482 89.0811 79.1107 89.3077 78.5325 89.3077C77.9778 89.3077 77.5501 89.0753 77.2493 88.6104C76.9525 88.1456 76.804 87.4796 76.804 86.6124C76.804 85.7256 76.9486 85.0577 77.2376 84.6085C77.5306 84.1592 77.9622 83.9346 78.5325 83.9346C79.0872 83.9346 79.5189 84.1651 79.8275 84.626C80.14 85.0831 80.2962 85.7452 80.2962 86.6124ZM78.7845 80.6241L74.0325 89.1905H73.1712L77.9232 80.6241H78.7845Z" fill="#999999"/>
<path d="M28.0691 45.2381L24.9874 48.3214L21.9056 45.2381L20.2279 46.9167L23.3096 50L20.2279 53.0833L21.9056 54.7619L24.9874 51.6786L28.0691 54.7619L29.7468 53.0833L26.6651 50L29.7468 46.9167L28.0691 45.2381ZM24.9874 38.0952C18.4074 38.0952 13.0886 43.4167 13.0886 50C13.0886 56.5833 18.4074 61.9048 24.9874 61.9048C31.5674 61.9048 36.8861 56.5833 36.8861 50C36.8861 43.4167 31.5674 38.0952 24.9874 38.0952ZM24.9874 59.5238C19.74 59.5238 15.4684 55.25 15.4684 50C15.4684 44.75 19.74 40.4762 24.9874 40.4762C30.2347 40.4762 34.5063 44.75 34.5063 50C34.5063 55.25 30.2347 59.5238 24.9874 59.5238Z" fill="#E40000"/>
<path d="M24.9874 73.8095C18.4193 73.8095 13.0886 79.1428 13.0886 85.7143C13.0886 92.2857 18.4193 97.619 24.9874 97.619C31.5555 97.619 36.8861 92.2857 36.8861 85.7143C36.8861 79.1428 31.5555 73.8095 24.9874 73.8095ZM24.9874 95.2381C19.7281 95.2381 15.4684 90.9762 15.4684 85.7143C15.4684 80.4524 19.7281 76.1905 24.9874 76.1905C30.2466 76.1905 34.5063 80.4524 34.5063 85.7143C34.5063 90.9762 30.2466 95.2381 24.9874 95.2381Z" fill="#999999"/>
</svg>
