<svg width="94" height="100" viewBox="0 0 94 100" fill="none" xmlns="http://www.w3.org/2000/svg">
<path d="M30.4489 9.02382L22.6076 16.869L18.336 12.6071L16.6582 14.2857L22.6076 20.2381L32.1266 10.7143L30.4489 9.02382ZM24.9874 2.38098C18.4193 2.38098 13.0886 7.7143 13.0886 14.2857C13.0886 20.8571 18.4193 26.1904 24.9874 26.1904C31.5555 26.1904 36.8861 20.8571 36.8861 14.2857C36.8861 7.7143 31.5555 2.38098 24.9874 2.38098ZM24.9874 23.8095C19.7281 23.8095 15.4684 19.5476 15.4684 14.2857C15.4684 9.02382 19.7281 4.76193 24.9874 4.76193C30.2466 4.76193 34.5063 9.02382 34.5063 14.2857C34.5063 19.5476 30.2466 23.8095 24.9874 23.8095Z" fill="#999999"/>
<rect x="5.94934" y="35.7143" width="80.9114" height="28.5714" fill="#FFF6A4"/>
<path d="M54.6203 17.7619H53.6711V11.6564C53.6711 11.1486 53.6867 10.6682 53.718 10.215C53.636 10.2971 53.5442 10.383 53.4426 10.4728C53.341 10.5627 52.8762 10.9435 52.0481 11.6154L51.5324 10.9474L53.8 9.1955H54.6203V17.7619ZM63.5617 13.467C63.5617 14.9474 63.3274 16.0529 62.8586 16.7834C62.3938 17.5139 61.6809 17.8791 60.7199 17.8791C59.7981 17.8791 59.0969 17.506 58.6164 16.7599C58.136 16.0099 57.8957 14.9123 57.8957 13.467C57.8957 11.9748 58.1281 10.8674 58.593 10.1447C59.0578 9.42206 59.7668 9.06073 60.7199 9.06073C61.6496 9.06073 62.3547 9.43768 62.8352 10.1916C63.3195 10.9455 63.5617 12.0373 63.5617 13.467ZM58.8801 13.467C58.8801 14.7131 59.0266 15.6213 59.3195 16.1916C59.6125 16.758 60.0793 17.0412 60.7199 17.0412C61.3684 17.0412 61.8371 16.7541 62.1262 16.1799C62.4192 15.6017 62.5656 14.6974 62.5656 13.467C62.5656 12.2365 62.4192 11.3361 62.1262 10.7658C61.8371 10.1916 61.3684 9.90448 60.7199 9.90448C60.0793 9.90448 59.6125 10.1877 59.3195 10.7541C59.0266 11.3166 58.8801 12.2209 58.8801 13.467ZM70.4289 13.467C70.4289 14.9474 70.1945 16.0529 69.7258 16.7834C69.261 17.5139 68.5481 17.8791 67.5871 17.8791C66.6652 17.8791 65.9641 17.506 65.4836 16.7599C65.0031 16.0099 64.7629 14.9123 64.7629 13.467C64.7629 11.9748 64.9953 10.8674 65.4602 10.1447C65.925 9.42206 66.634 9.06073 67.5871 9.06073C68.5168 9.06073 69.2219 9.43768 69.7024 10.1916C70.1867 10.9455 70.4289 12.0373 70.4289 13.467ZM65.7473 13.467C65.7473 14.7131 65.8938 15.6213 66.1867 16.1916C66.4797 16.758 66.9465 17.0412 67.5871 17.0412C68.2356 17.0412 68.7043 16.7541 68.9934 16.1799C69.2863 15.6017 69.4328 14.6974 69.4328 13.467C69.4328 12.2365 69.2863 11.3361 68.9934 10.7658C68.7043 10.1916 68.2356 9.90448 67.5871 9.90448C66.9465 9.90448 66.4797 10.1877 66.1867 10.7541C65.8938 11.3166 65.7473 12.2209 65.7473 13.467ZM72.4504 11.7502C72.4504 12.4142 72.5227 12.9123 72.6672 13.2443C72.8117 13.5764 73.0461 13.7424 73.3703 13.7424C74.011 13.7424 74.3313 13.0783 74.3313 11.7502C74.3313 10.4299 74.011 9.76971 73.3703 9.76971C73.0461 9.76971 72.8117 9.93378 72.6672 10.2619C72.5227 10.59 72.4504 11.0861 72.4504 11.7502ZM75.134 11.7502C75.134 12.6408 74.9836 13.3146 74.6828 13.7717C74.386 14.2248 73.9485 14.4514 73.3703 14.4514C72.8235 14.4514 72.3977 14.2189 72.093 13.7541C71.7922 13.2892 71.6418 12.6213 71.6418 11.7502C71.6418 10.8635 71.7863 10.1955 72.0754 9.74628C72.3684 9.29706 72.8 9.07245 73.3703 9.07245C73.9367 9.07245 74.3723 9.30487 74.677 9.76971C74.9817 10.2346 75.134 10.8947 75.134 11.7502ZM77.6067 15.1838C77.6067 15.8517 77.6789 16.3517 77.8235 16.6838C77.968 17.0119 78.2043 17.176 78.5324 17.176C78.8606 17.176 79.1027 17.0139 79.259 16.6896C79.4152 16.3615 79.4934 15.8596 79.4934 15.1838C79.4934 14.5158 79.4152 14.0217 79.259 13.7014C79.1027 13.3771 78.8606 13.215 78.5324 13.215C78.2043 13.215 77.968 13.3771 77.8235 13.7014C77.6789 14.0217 77.6067 14.5158 77.6067 15.1838ZM80.2961 15.1838C80.2961 16.0705 80.1457 16.7424 79.8449 17.1994C79.5481 17.6525 79.1106 17.8791 78.5324 17.8791C77.9777 17.8791 77.55 17.6467 77.2492 17.1818C76.9524 16.717 76.8039 16.051 76.8039 15.1838C76.8039 14.2971 76.9485 13.6291 77.2375 13.1799C77.5305 12.7307 77.9621 12.506 78.5324 12.506C79.0871 12.506 79.5188 12.7365 79.8274 13.1974C80.1399 13.6545 80.2961 14.3166 80.2961 15.1838ZM78.7844 9.1955L74.0324 17.7619H73.1711L77.9231 9.1955H78.7844Z" fill="#999999"/>
<path d="M70.3703 49.1813C70.3703 49.8766 70.3176 50.4977 70.2121 51.0446C70.1067 51.5914 69.9406 52.0543 69.7141 52.4332C69.4875 52.8121 69.1945 53.1012 68.8352 53.3004C68.4758 53.4957 68.0442 53.5934 67.5402 53.5934C66.9035 53.5934 66.3762 53.4196 65.9582 53.0719C65.5442 52.7242 65.2336 52.2223 65.0266 51.566C64.8235 50.9059 64.7219 50.111 64.7219 49.1813C64.7219 48.2672 64.8137 47.4821 64.9973 46.8258C65.1848 46.1656 65.4856 45.6598 65.8996 45.3082C66.3137 44.9528 66.8606 44.775 67.5402 44.775C68.1848 44.775 68.716 44.9508 69.134 45.3024C69.552 45.65 69.8625 46.1539 70.0656 46.8141C70.2688 47.4703 70.3703 48.2594 70.3703 49.1813ZM65.7004 49.1813C65.7004 49.9781 65.761 50.6422 65.882 51.1735C66.0031 51.7047 66.1985 52.1031 66.468 52.3688C66.7414 52.6305 67.0988 52.7614 67.5402 52.7614C67.9817 52.7614 68.3371 52.6305 68.6067 52.3688C68.8801 52.1071 69.0774 51.7106 69.1985 51.1793C69.3235 50.6481 69.386 49.9821 69.386 49.1813C69.386 48.3961 69.3254 47.7399 69.2043 47.2125C69.0832 46.6813 68.8879 46.2828 68.6184 46.0172C68.3488 45.7477 67.9895 45.6129 67.5402 45.6129C67.091 45.6129 66.7317 45.7477 66.4621 46.0172C66.1926 46.2828 65.9973 46.6813 65.8762 47.2125C65.759 47.7399 65.7004 48.3961 65.7004 49.1813ZM73.3235 44.7867C73.9094 44.7867 74.3527 45.0211 74.6535 45.4899C74.9582 45.9547 75.1106 46.6129 75.1106 47.4645C75.1106 48.316 74.9641 48.9801 74.6711 49.4567C74.3781 49.9293 73.9289 50.1656 73.3235 50.1656C72.761 50.1656 72.3293 49.9293 72.0285 49.4567C71.7317 48.9801 71.5832 48.316 71.5832 47.4645C71.5832 46.6129 71.7258 45.9547 72.011 45.4899C72.2961 45.0211 72.7336 44.7867 73.3235 44.7867ZM73.3235 45.484C73.007 45.484 72.7746 45.65 72.6262 45.9821C72.4777 46.3102 72.4035 46.8043 72.4035 47.4645C72.4035 48.1246 72.4777 48.6227 72.6262 48.9586C72.7746 49.2946 73.007 49.4625 73.3235 49.4625C73.6516 49.4625 73.8957 49.2946 74.0559 48.9586C74.216 48.6227 74.2961 48.1246 74.2961 47.4645C74.2961 46.8082 74.216 46.3141 74.0559 45.9821C73.8996 45.65 73.6555 45.484 73.3235 45.484ZM78.7492 44.9098L73.9973 53.4762H73.1418L77.8938 44.9098H78.7492ZM78.5207 48.2203C79.1027 48.2203 79.5461 48.4547 79.8508 48.9235C80.1555 49.3883 80.3078 50.0465 80.3078 50.8981C80.3078 51.7457 80.1613 52.4078 79.8684 52.8844C79.5754 53.3571 79.1262 53.5934 78.5207 53.5934C77.9543 53.5934 77.5227 53.3571 77.2258 52.8844C76.9289 52.4078 76.7805 51.7457 76.7805 50.8981C76.7805 50.0465 76.9211 49.3883 77.2024 48.9235C77.4875 48.4547 77.927 48.2203 78.5207 48.2203ZM78.5207 48.9235C78.2043 48.9235 77.9719 49.0875 77.8235 49.4156C77.675 49.7438 77.6008 50.2379 77.6008 50.8981C77.6008 51.5582 77.675 52.0563 77.8235 52.3922C77.9719 52.7242 78.2043 52.8903 78.5207 52.8903C78.8488 52.8903 79.093 52.7262 79.2531 52.3981C79.4133 52.066 79.4934 51.566 79.4934 50.8981C79.4934 50.2418 79.4133 49.7496 79.2531 49.4215C79.0969 49.0895 78.8527 48.9235 78.5207 48.9235Z" fill="black"/>
<path d="M70.429 84.8956C70.429 86.376 70.1946 87.4815 69.7259 88.212C69.2611 88.9424 68.5482 89.3077 67.5872 89.3077C66.6653 89.3077 65.9642 88.9346 65.4837 88.1885C65.0032 87.4385 64.763 86.3409 64.763 84.8956C64.763 83.4034 64.9954 82.296 65.4603 81.5733C65.9251 80.8506 66.6341 80.4893 67.5872 80.4893C68.5169 80.4893 69.222 80.8663 69.7025 81.6202C70.1868 82.3741 70.429 83.4659 70.429 84.8956ZM65.7474 84.8956C65.7474 86.1417 65.8939 87.0499 66.1868 87.6202C66.4798 88.1866 66.9466 88.4698 67.5872 88.4698C68.2357 88.4698 68.7044 88.1827 68.9935 87.6085C69.2864 87.0303 69.4329 86.126 69.4329 84.8956C69.4329 83.6651 69.2864 82.7647 68.9935 82.1944C68.7044 81.6202 68.2357 81.3331 67.5872 81.3331C66.9466 81.3331 66.4798 81.6163 66.1868 82.1827C65.8939 82.7452 65.7474 83.6495 65.7474 84.8956ZM72.4505 83.1788C72.4505 83.8428 72.5228 84.3409 72.6673 84.6729C72.8118 85.0049 73.0462 85.171 73.3704 85.171C74.0111 85.171 74.3314 84.5069 74.3314 83.1788C74.3314 81.8585 74.0111 81.1983 73.3704 81.1983C73.0462 81.1983 72.8118 81.3624 72.6673 81.6905C72.5228 82.0186 72.4505 82.5147 72.4505 83.1788ZM75.1341 83.1788C75.1341 84.0694 74.9837 84.7432 74.6829 85.2003C74.3861 85.6534 73.9486 85.8799 73.3704 85.8799C72.8236 85.8799 72.3978 85.6475 72.0931 85.1827C71.7923 84.7178 71.6419 84.0499 71.6419 83.1788C71.6419 82.2921 71.7864 81.6241 72.0755 81.1749C72.3685 80.7256 72.8001 80.501 73.3704 80.501C73.9368 80.501 74.3724 80.7335 74.6771 81.1983C74.9818 81.6631 75.1341 82.3233 75.1341 83.1788ZM77.6068 86.6124C77.6068 87.2803 77.679 87.7803 77.8236 88.1124C77.9681 88.4405 78.2044 88.6046 78.5325 88.6046C78.8607 88.6046 79.1028 88.4424 79.2591 88.1182C79.4153 87.7901 79.4935 87.2881 79.4935 86.6124C79.4935 85.9444 79.4153 85.4503 79.2591 85.1299C79.1028 84.8057 78.8607 84.6436 78.5325 84.6436C78.2044 84.6436 77.9681 84.8057 77.8236 85.1299C77.679 85.4503 77.6068 85.9444 77.6068 86.6124ZM80.2962 86.6124C80.2962 87.4991 80.1458 88.171 79.845 88.628C79.5482 89.0811 79.1107 89.3077 78.5325 89.3077C77.9778 89.3077 77.5501 89.0753 77.2493 88.6104C76.9525 88.1456 76.804 87.4796 76.804 86.6124C76.804 85.7256 76.9486 85.0577 77.2376 84.6085C77.5306 84.1592 77.9622 83.9346 78.5325 83.9346C79.0872 83.9346 79.5189 84.1651 79.8275 84.626C80.14 85.0831 80.2962 85.7452 80.2962 86.6124ZM78.7845 80.6241L74.0325 89.1905H73.1712L77.9232 80.6241H78.7845Z" fill="#999999"/>
<path d="M28.0691 45.2381L24.9874 48.3214L21.9056 45.2381L20.2279 46.9166L23.3096 50L20.2279 53.0833L21.9056 54.7619L24.9874 51.6785L28.0691 54.7619L29.7468 53.0833L26.6651 50L29.7468 46.9166L28.0691 45.2381ZM24.9874 38.0952C18.4074 38.0952 13.0886 43.4166 13.0886 50C13.0886 56.5833 18.4074 61.9047 24.9874 61.9047C31.5674 61.9047 36.8861 56.5833 36.8861 50C36.8861 43.4166 31.5674 38.0952 24.9874 38.0952ZM24.9874 59.5238C19.74 59.5238 15.4684 55.25 15.4684 50C15.4684 44.75 19.74 40.4762 24.9874 40.4762C30.2347 40.4762 34.5063 44.75 34.5063 50C34.5063 55.25 30.2347 59.5238 24.9874 59.5238Z" fill="#E40000"/>
<path d="M24.9874 73.8095C18.4193 73.8095 13.0886 79.1428 13.0886 85.7143C13.0886 92.2857 18.4193 97.619 24.9874 97.619C31.5555 97.619 36.8861 92.2857 36.8861 85.7143C36.8861 79.1428 31.5555 73.8095 24.9874 73.8095ZM24.9874 95.2381C19.7281 95.2381 15.4684 90.9762 15.4684 85.7143C15.4684 80.4524 19.7281 76.1905 24.9874 76.1905C30.2466 76.1905 34.5063 80.4524 34.5063 85.7143C34.5063 90.9762 30.2466 95.2381 24.9874 95.2381Z" fill="#999999"/>
</svg>
