<svg width="79" height="84" viewBox="0 0 79 84" fill="none" xmlns="http://www.w3.org/2000/svg">
<path d="M25.59 7.57999L19 14.17L15.41 10.59L14 12L19 17L27 8.99998L25.59 7.57999ZM21 2C15.48 2 11 6.47999 11 12C11 17.52 15.48 22 21 22C26.52 22 31 17.52 31 12C31 6.47999 26.52 2 21 2ZM21 20C16.58 20 13 16.42 13 12C13 7.57999 16.58 4 21 4C25.42 4 29 7.57999 29 12C29 16.42 25.42 20 21 20Z" fill="#00BB29"/>
<rect x="5" y="30" width="68" height="24" fill="#FFECB3"/>
<path d="M41.709 17H40.7598V10.8945C40.7598 10.3867 40.7754 9.90625 40.8066 9.45312C40.7246 9.53516 40.6328 9.62109 40.5312 9.71094C40.4297 9.80078 39.9648 10.1816 39.1367 10.8535L38.6211 10.1855L40.8887 8.43359H41.709V17ZM50.6504 12.7051C50.6504 14.1855 50.416 15.291 49.9473 16.0215C49.4824 16.752 48.7695 17.1172 47.8086 17.1172C46.8867 17.1172 46.1855 16.7441 45.7051 15.998C45.2246 15.248 44.9844 14.1504 44.9844 12.7051C44.9844 11.2129 45.2168 10.1055 45.6816 9.38281C46.1465 8.66016 46.8555 8.29883 47.8086 8.29883C48.7383 8.29883 49.4434 8.67578 49.9238 9.42969C50.4082 10.1836 50.6504 11.2754 50.6504 12.7051ZM45.9688 12.7051C45.9688 13.9512 46.1152 14.8594 46.4082 15.4297C46.7012 15.9961 47.168 16.2793 47.8086 16.2793C48.457 16.2793 48.9258 15.9922 49.2148 15.418C49.5078 14.8398 49.6543 13.9355 49.6543 12.7051C49.6543 11.4746 49.5078 10.5742 49.2148 10.0039C48.9258 9.42969 48.457 9.14258 47.8086 9.14258C47.168 9.14258 46.7012 9.42578 46.4082 9.99219C46.1152 10.5547 45.9688 11.459 45.9688 12.7051ZM57.5176 12.7051C57.5176 14.1855 57.2832 15.291 56.8145 16.0215C56.3496 16.752 55.6367 17.1172 54.6758 17.1172C53.7539 17.1172 53.0527 16.7441 52.5723 15.998C52.0918 15.248 51.8516 14.1504 51.8516 12.7051C51.8516 11.2129 52.084 10.1055 52.5488 9.38281C53.0137 8.66016 53.7227 8.29883 54.6758 8.29883C55.6055 8.29883 56.3105 8.67578 56.791 9.42969C57.2754 10.1836 57.5176 11.2754 57.5176 12.7051ZM52.8359 12.7051C52.8359 13.9512 52.9824 14.8594 53.2754 15.4297C53.5684 15.9961 54.0352 16.2793 54.6758 16.2793C55.3242 16.2793 55.793 15.9922 56.082 15.418C56.375 14.8398 56.5215 13.9355 56.5215 12.7051C56.5215 11.4746 56.375 10.5742 56.082 10.0039C55.793 9.42969 55.3242 9.14258 54.6758 9.14258C54.0352 9.14258 53.5684 9.42578 53.2754 9.99219C52.9824 10.5547 52.8359 11.459 52.8359 12.7051ZM59.5391 10.9883C59.5391 11.6523 59.6113 12.1504 59.7559 12.4824C59.9004 12.8145 60.1348 12.9805 60.459 12.9805C61.0996 12.9805 61.4199 12.3164 61.4199 10.9883C61.4199 9.66797 61.0996 9.00781 60.459 9.00781C60.1348 9.00781 59.9004 9.17188 59.7559 9.5C59.6113 9.82812 59.5391 10.3242 59.5391 10.9883ZM62.2227 10.9883C62.2227 11.8789 62.0723 12.5527 61.7715 13.0098C61.4746 13.4629 61.0371 13.6895 60.459 13.6895C59.9121 13.6895 59.4863 13.457 59.1816 12.9922C58.8809 12.5273 58.7305 11.8594 58.7305 10.9883C58.7305 10.1016 58.875 9.43359 59.1641 8.98438C59.457 8.53516 59.8887 8.31055 60.459 8.31055C61.0254 8.31055 61.4609 8.54297 61.7656 9.00781C62.0703 9.47266 62.2227 10.1328 62.2227 10.9883ZM64.6953 14.4219C64.6953 15.0898 64.7676 15.5898 64.9121 15.9219C65.0566 16.25 65.293 16.4141 65.6211 16.4141C65.9492 16.4141 66.1914 16.252 66.3477 15.9277C66.5039 15.5996 66.582 15.0977 66.582 14.4219C66.582 13.7539 66.5039 13.2598 66.3477 12.9395C66.1914 12.6152 65.9492 12.4531 65.6211 12.4531C65.293 12.4531 65.0566 12.6152 64.9121 12.9395C64.7676 13.2598 64.6953 13.7539 64.6953 14.4219ZM67.3848 14.4219C67.3848 15.3086 67.2344 15.9805 66.9336 16.4375C66.6367 16.8906 66.1992 17.1172 65.6211 17.1172C65.0664 17.1172 64.6387 16.8848 64.3379 16.4199C64.041 15.9551 63.8926 15.2891 63.8926 14.4219C63.8926 13.5352 64.0371 12.8672 64.3262 12.418C64.6191 11.9688 65.0508 11.7441 65.6211 11.7441C66.1758 11.7441 66.6074 11.9746 66.916 12.4355C67.2285 12.8926 67.3848 13.5547 67.3848 14.4219ZM65.873 8.43359L61.1211 17H60.2598L65.0117 8.43359H65.873Z" fill="#00BB29"/>
<path d="M57.5176 42.7051C57.5176 44.1855 57.2832 45.291 56.8145 46.0215C56.3496 46.752 55.6367 47.1172 54.6758 47.1172C53.7539 47.1172 53.0527 46.7441 52.5723 45.998C52.0918 45.248 51.8516 44.1504 51.8516 42.7051C51.8516 41.2129 52.084 40.1055 52.5488 39.3828C53.0137 38.6602 53.7227 38.2988 54.6758 38.2988C55.6055 38.2988 56.3105 38.6758 56.791 39.4297C57.2754 40.1836 57.5176 41.2754 57.5176 42.7051ZM52.8359 42.7051C52.8359 43.9512 52.9824 44.8594 53.2754 45.4297C53.5684 45.9961 54.0352 46.2793 54.6758 46.2793C55.3242 46.2793 55.793 45.9922 56.082 45.418C56.375 44.8398 56.5215 43.9355 56.5215 42.7051C56.5215 41.4746 56.375 40.5742 56.082 40.0039C55.793 39.4297 55.3242 39.1426 54.6758 39.1426C54.0352 39.1426 53.5684 39.4258 53.2754 39.9922C52.9824 40.5547 52.8359 41.459 52.8359 42.7051ZM59.5391 40.9883C59.5391 41.6523 59.6113 42.1504 59.7559 42.4824C59.9004 42.8145 60.1348 42.9805 60.459 42.9805C61.0996 42.9805 61.4199 42.3164 61.4199 40.9883C61.4199 39.668 61.0996 39.0078 60.459 39.0078C60.1348 39.0078 59.9004 39.1719 59.7559 39.5C59.6113 39.8281 59.5391 40.3242 59.5391 40.9883ZM62.2227 40.9883C62.2227 41.8789 62.0723 42.5527 61.7715 43.0098C61.4746 43.4629 61.0371 43.6895 60.459 43.6895C59.9121 43.6895 59.4863 43.457 59.1816 42.9922C58.8809 42.5273 58.7305 41.8594 58.7305 40.9883C58.7305 40.1016 58.875 39.4336 59.1641 38.9844C59.457 38.5352 59.8887 38.3105 60.459 38.3105C61.0254 38.3105 61.4609 38.543 61.7656 39.0078C62.0703 39.4727 62.2227 40.1328 62.2227 40.9883ZM64.6953 44.4219C64.6953 45.0898 64.7676 45.5898 64.9121 45.9219C65.0566 46.25 65.293 46.4141 65.6211 46.4141C65.9492 46.4141 66.1914 46.252 66.3477 45.9277C66.5039 45.5996 66.582 45.0977 66.582 44.4219C66.582 43.7539 66.5039 43.2598 66.3477 42.9395C66.1914 42.6152 65.9492 42.4531 65.6211 42.4531C65.293 42.4531 65.0566 42.6152 64.9121 42.9395C64.7676 43.2598 64.6953 43.7539 64.6953 44.4219ZM67.3848 44.4219C67.3848 45.3086 67.2344 45.9805 66.9336 46.4375C66.6367 46.8906 66.1992 47.1172 65.6211 47.1172C65.0664 47.1172 64.6387 46.8848 64.3379 46.4199C64.041 45.9551 63.8926 45.2891 63.8926 44.4219C63.8926 43.5352 64.0371 42.8672 64.3262 42.418C64.6191 41.9688 65.0508 41.7441 65.6211 41.7441C66.1758 41.7441 66.6074 41.9746 66.916 42.4355C67.2285 42.8926 67.3848 43.5547 67.3848 44.4219ZM65.873 38.4336L61.1211 47H60.2598L65.0117 38.4336H65.873Z" fill="black"/>
<path d="M57.5176 72.7051C57.5176 74.1855 57.2832 75.291 56.8145 76.0215C56.3496 76.752 55.6367 77.1172 54.6758 77.1172C53.7539 77.1172 53.0527 76.7441 52.5723 75.998C52.0918 75.248 51.8516 74.1504 51.8516 72.7051C51.8516 71.2129 52.084 70.1055 52.5488 69.3828C53.0137 68.6602 53.7227 68.2988 54.6758 68.2988C55.6055 68.2988 56.3105 68.6758 56.791 69.4297C57.2754 70.1836 57.5176 71.2754 57.5176 72.7051ZM52.8359 72.7051C52.8359 73.9512 52.9824 74.8594 53.2754 75.4297C53.5684 75.9961 54.0352 76.2793 54.6758 76.2793C55.3242 76.2793 55.793 75.9922 56.082 75.418C56.375 74.8398 56.5215 73.9355 56.5215 72.7051C56.5215 71.4746 56.375 70.5742 56.082 70.0039C55.793 69.4297 55.3242 69.1426 54.6758 69.1426C54.0352 69.1426 53.5684 69.4258 53.2754 69.9922C52.9824 70.5547 52.8359 71.459 52.8359 72.7051ZM59.5391 70.9883C59.5391 71.6523 59.6113 72.1504 59.7559 72.4824C59.9004 72.8145 60.1348 72.9805 60.459 72.9805C61.0996 72.9805 61.4199 72.3164 61.4199 70.9883C61.4199 69.668 61.0996 69.0078 60.459 69.0078C60.1348 69.0078 59.9004 69.1719 59.7559 69.5C59.6113 69.8281 59.5391 70.3242 59.5391 70.9883ZM62.2227 70.9883C62.2227 71.8789 62.0723 72.5527 61.7715 73.0098C61.4746 73.4629 61.0371 73.6895 60.459 73.6895C59.9121 73.6895 59.4863 73.457 59.1816 72.9922C58.8809 72.5273 58.7305 71.8594 58.7305 70.9883C58.7305 70.1016 58.875 69.4336 59.1641 68.9844C59.457 68.5352 59.8887 68.3105 60.459 68.3105C61.0254 68.3105 61.4609 68.543 61.7656 69.0078C62.0703 69.4727 62.2227 70.1328 62.2227 70.9883ZM64.6953 74.4219C64.6953 75.0898 64.7676 75.5898 64.9121 75.9219C65.0566 76.25 65.293 76.4141 65.6211 76.4141C65.9492 76.4141 66.1914 76.252 66.3477 75.9277C66.5039 75.5996 66.582 75.0977 66.582 74.4219C66.582 73.7539 66.5039 73.2598 66.3477 72.9395C66.1914 72.6152 65.9492 72.4531 65.6211 72.4531C65.293 72.4531 65.0566 72.6152 64.9121 72.9395C64.7676 73.2598 64.6953 73.7539 64.6953 74.4219ZM67.3848 74.4219C67.3848 75.3086 67.2344 75.9805 66.9336 76.4375C66.6367 76.8906 66.1992 77.1172 65.6211 77.1172C65.0664 77.1172 64.6387 76.8848 64.3379 76.4199C64.041 75.9551 63.8926 75.2891 63.8926 74.4219C63.8926 73.5352 64.0371 72.8672 64.3262 72.418C64.6191 71.9688 65.0508 71.7441 65.6211 71.7441C66.1758 71.7441 66.6074 71.9746 66.916 72.4355C67.2285 72.8926 67.3848 73.5547 67.3848 74.4219ZM65.873 68.4336L61.1211 77H60.2598L65.0117 68.4336H65.873Z" fill="#999999"/>
<path d="M23.59 38L21 40.59L18.41 38L17 39.41L19.59 42L17 44.59L18.41 46L21 43.41L23.59 46L25 44.59L22.41 42L25 39.41L23.59 38ZM21 32C15.47 32 11 36.47 11 42C11 47.53 15.47 52 21 52C26.53 52 31 47.53 31 42C31 36.47 26.53 32 21 32ZM21 50C16.59 50 13 46.41 13 42C13 37.59 16.59 34 21 34C25.41 34 29 37.59 29 42C29 46.41 25.41 50 21 50Z" fill="black"/>
<path d="M21 62C15.48 62 11 66.48 11 72C11 77.52 15.48 82 21 82C26.52 82 31 77.52 31 72C31 66.48 26.52 62 21 62ZM21 80C16.58 80 13 76.42 13 72C13 67.58 16.58 64 21 64C25.42 64 29 67.58 29 72C29 76.42 25.42 80 21 80Z" fill="#CCCCCC"/>
</svg>
