<svg width="160" height="80" viewBox="0 0 160 80" fill="none" xmlns="http://www.w3.org/2000/svg">
<circle cx="18" cy="20" r="6.5" fill="#D9D9D9"/>
<rect x="26.5" y="17" width="38" height="6" fill="#D9D9D9"/>
<path d="M74.795 25.7L75.77 21.485L72.5 18.65L76.82 18.275L78.5 14.3L80.18 18.275L84.5 18.65L81.23 21.485L82.205 25.7L78.5 23.465L74.795 25.7Z" fill="#FFCC33"/>
<path d="M94.795 25.7L95.77 21.485L92.5 18.65L96.82 18.275L98.5 14.3L100.18 18.275L104.5 18.65L101.23 21.485L102.205 25.7L98.5 23.465L94.795 25.7Z" fill="#FFCC33"/>
<path d="M114.795 25.7L115.77 21.485L112.5 18.65L116.82 18.275L118.5 14.3L120.18 18.275L124.5 18.65L121.23 21.485L122.205 25.7L118.5 23.465L114.795 25.7Z" fill="#FFCC33"/>
<path fill-rule="evenodd" clip-rule="evenodd" d="M135.5 21.5C135.898 21.5 136.279 21.342 136.561 21.0607C136.842 20.7794 137 20.3978 137 20C137 19.6022 136.842 19.2206 136.561 18.9393C136.279 18.658 135.898 18.5 135.5 18.5C135.102 18.5 134.721 18.658 134.439 18.9393C134.158 19.2206 134 19.6022 134 20C134 20.3978 134.158 20.7794 134.439 21.0607C134.721 21.342 135.102 21.5 135.5 21.5ZM142 20C142 20.3978 141.842 20.7794 141.561 21.0607C141.279 21.342 140.898 21.5 140.5 21.5C140.102 21.5 139.721 21.342 139.439 21.0607C139.158 20.7794 139 20.3978 139 20C139 19.6022 139.158 19.2206 139.439 18.9393C139.721 18.658 140.102 18.5 140.5 18.5C140.898 18.5 141.279 18.658 141.561 18.9393C141.842 19.2206 142 19.6022 142 20ZM147 20C147 20.3978 146.842 20.7794 146.561 21.0607C146.279 21.342 145.898 21.5 145.5 21.5C145.102 21.5 144.721 21.342 144.439 21.0607C144.158 20.7794 144 20.3978 144 20C144 19.6022 144.158 19.2206 144.439 18.9393C144.721 18.658 145.102 18.5 145.5 18.5C145.898 18.5 146.279 18.658 146.561 18.9393C146.842 19.2206 147 19.6022 147 20Z" fill="#CCCCCC"/>
<circle cx="18" cy="40" r="6.5" fill="#D9D9D9"/>
<rect x="26.5" y="37" width="38" height="6" fill="#D9D9D9"/>
<path d="M74.795 45.7L75.77 41.485L72.5 38.65L76.82 38.275L78.5 34.3L80.18 38.275L84.5 38.65L81.23 41.485L82.205 45.7L78.5 43.465L74.795 45.7Z" fill="#FFCC33"/>
<path d="M94.795 45.7L95.77 41.485L92.5 38.65L96.82 38.275L98.5 34.3L100.18 38.275L104.5 38.65L101.23 41.485L102.205 45.7L98.5 43.465L94.795 45.7Z" fill="#FFCC33"/>
<path d="M114.795 45.7L115.77 41.485L112.5 38.65L116.82 38.275L118.5 34.3L120.18 38.275L124.5 38.65L121.23 41.485L122.205 45.7L118.5 43.465L114.795 45.7Z" fill="#FFCC33"/>
<path fill-rule="evenodd" clip-rule="evenodd" d="M135.5 41.5C135.898 41.5 136.279 41.342 136.561 41.0607C136.842 40.7794 137 40.3978 137 40C137 39.6022 136.842 39.2206 136.561 38.9393C136.279 38.658 135.898 38.5 135.5 38.5C135.102 38.5 134.721 38.658 134.439 38.9393C134.158 39.2206 134 39.6022 134 40C134 40.3978 134.158 40.7794 134.439 41.0607C134.721 41.342 135.102 41.5 135.5 41.5ZM142 40C142 40.3978 141.842 40.7794 141.561 41.0607C141.279 41.342 140.898 41.5 140.5 41.5C140.102 41.5 139.721 41.342 139.439 41.0607C139.158 40.7794 139 40.3978 139 40C139 39.6022 139.158 39.2206 139.439 38.9393C139.721 38.658 140.102 38.5 140.5 38.5C140.898 38.5 141.279 38.658 141.561 38.9393C141.842 39.2206 142 39.6022 142 40ZM147 40C147 40.3978 146.842 40.7794 146.561 41.0607C146.279 41.342 145.898 41.5 145.5 41.5C145.102 41.5 144.721 41.342 144.439 41.0607C144.158 40.7794 144 40.3978 144 40C144 39.6022 144.158 39.2206 144.439 38.9393C144.721 38.658 145.102 38.5 145.5 38.5C145.898 38.5 146.279 38.658 146.561 38.9393C146.842 39.2206 147 39.6022 147 40Z" fill="#CCCCCC"/>
<circle cx="18" cy="60" r="6.5" fill="#D9D9D9"/>
<rect x="26.5" y="57" width="38" height="6" fill="#D9D9D9"/>
<path d="M74.795 65.7L75.77 61.485L72.5 58.65L76.82 58.275L78.5 54.3L80.18 58.275L84.5 58.65L81.23 61.485L82.205 65.7L78.5 63.465L74.795 65.7Z" fill="#FFCC33"/>
<path d="M94.795 65.7L95.77 61.485L92.5 58.65L96.82 58.275L98.5 54.3L100.18 58.275L104.5 58.65L101.23 61.485L102.205 65.7L98.5 63.465L94.795 65.7Z" fill="#FFCC33"/>
<path d="M114.795 65.7L115.77 61.485L112.5 58.65L116.82 58.275L118.5 54.3L120.18 58.275L124.5 58.65L121.23 61.485L122.205 65.7L118.5 63.465L114.795 65.7Z" fill="#FFCC33"/>
<path fill-rule="evenodd" clip-rule="evenodd" d="M135.5 61.5C135.898 61.5 136.279 61.342 136.561 61.0607C136.842 60.7794 137 60.3978 137 60C137 59.6022 136.842 59.2206 136.561 58.9393C136.279 58.658 135.898 58.5 135.5 58.5C135.102 58.5 134.721 58.658 134.439 58.9393C134.158 59.2206 134 59.6022 134 60C134 60.3978 134.158 60.7794 134.439 61.0607C134.721 61.342 135.102 61.5 135.5 61.5ZM142 60C142 60.3978 141.842 60.7794 141.561 61.0607C141.279 61.342 140.898 61.5 140.5 61.5C140.102 61.5 139.721 61.342 139.439 61.0607C139.158 60.7794 139 60.3978 139 60C139 59.6022 139.158 59.2206 139.439 58.9393C139.721 58.658 140.102 58.5 140.5 58.5C140.898 58.5 141.279 58.658 141.561 58.9393C141.842 59.2206 142 59.6022 142 60ZM147 60C147 60.3978 146.842 60.7794 146.561 61.0607C146.279 61.342 145.898 61.5 145.5 61.5C145.102 61.5 144.721 61.342 144.439 61.0607C144.158 60.7794 144 60.3978 144 60C144 59.6022 144.158 59.2206 144.439 58.9393C144.721 58.658 145.102 58.5 145.5 58.5C145.898 58.5 146.279 58.658 146.561 58.9393C146.842 59.2206 147 59.6022 147 60Z" fill="#CCCCCC"/>
</svg>
