<svg width="160" height="80" viewBox="0 0 160 80" fill="none" xmlns="http://www.w3.org/2000/svg">
<circle cx="50" cy="19" r="6.5" fill="#D9D9D9"/>
<rect x="58.5" y="16" width="38" height="6" fill="#D9D9D9"/>
<path d="M106.795 24.7L107.77 20.485L104.5 17.65L108.82 17.275L110.5 13.3L112.18 17.275L116.5 17.65L113.23 20.485L114.205 24.7L110.5 22.465L106.795 24.7Z" fill="#FFCC33"/>
<circle cx="50" cy="40" r="6.5" fill="#D9D9D9"/>
<rect x="58.5" y="37" width="38" height="6" fill="#D9D9D9"/>
<path d="M106.795 45.7L107.77 41.485L104.5 38.65L108.82 38.275L110.5 34.3L112.18 38.275L116.5 38.65L113.23 41.485L114.205 45.7L110.5 43.465L106.795 45.7Z" fill="#FFCC33"/>
<circle cx="50" cy="61" r="6.5" fill="#D9D9D9"/>
<rect x="58.5" y="58" width="38" height="6" fill="#D9D9D9"/>
<path d="M106.795 66.7L107.77 62.485L104.5 59.65L108.82 59.275L110.5 55.3L112.18 59.275L116.5 59.65L113.23 62.485L114.205 66.7L110.5 64.465L106.795 66.7Z" fill="#FFCC33"/>
</svg>
