<svg width="160" height="80" viewBox="0 0 160 80" fill="none" xmlns="http://www.w3.org/2000/svg">
<path d="M15.59 35.58L9 42.17L5.41 38.59L4 40L9 45L17 37L15.59 35.58ZM11 30C5.48 30 1 34.48 1 40C1 45.52 5.48 50 11 50C16.52 50 21 45.52 21 40C21 34.48 16.52 30 11 30ZM11 48C6.58 48 3 44.42 3 40C3 35.58 6.58 32 11 32C15.42 32 19 35.58 19 40C19 44.42 15.42 48 11 48Z" fill="#00BB29"/>
<path d="M15.59 5.57999L9 12.17L5.41 8.58998L4 9.99998L9 15L17 6.99998L15.59 5.57999ZM11 0C5.48 0 1 4.47999 1 9.99998C1 15.52 5.48 20 11 20C16.52 20 21 15.52 21 9.99998C21 4.47999 16.52 0 11 0ZM11 18C6.58 18 3 14.42 3 9.99998C3 5.57999 6.58 2 11 2C15.42 2 19 5.57999 19 9.99998C19 14.42 15.42 18 11 18Z" fill="#00BB29"/>
<path d="M15.59 65.58L9 72.17L5.41 68.59L4 70L9 75L17 67L15.59 65.58ZM11 60C5.48 60 1 64.48 1 70C1 75.52 5.48 80 11 80C16.52 80 21 75.52 21 70C21 64.48 16.52 60 11 60ZM11 78C6.58 78 3 74.42 3 70C3 65.58 6.58 62 11 62C15.42 62 19 65.58 19 70C19 74.42 15.42 78 11 78Z" fill="#00BB29"/>
<path d="M92 40L72 28.453L72 51.547L92 40ZM31 42L74 42L74 38L31 38L31 42Z" fill="#231F20" fill-opacity="0.5"/>
<path d="M126.837 51.2211L146.512 63L141.291 40.8L158.673 25.8632L135.783 23.9368L126.837 3L117.891 23.9368L95 25.8632L112.383 40.8L107.162 63L126.837 51.2211Z" fill="#FFCC33"/>
<path d="M127.35 50.3631L126.837 50.0555L126.323 50.3631L108.676 60.9277L113.356 41.0289L113.495 40.4375L113.035 40.0415L97.4612 26.6596L117.974 24.9333L118.574 24.8829L118.81 24.3298L126.837 5.54502L134.863 24.3298L135.1 24.8829L135.699 24.9333L156.212 26.6596L140.639 40.0415L140.178 40.4375L140.317 41.0289L144.997 60.9277L127.35 50.3631Z" stroke="black" stroke-opacity="0.5" stroke-width="2"/>
</svg>
