<svg width="160" height="80" viewBox="0 0 160 80" fill="none" xmlns="http://www.w3.org/2000/svg">
<path d="M28.59 35.58L22 42.17L18.41 38.59L17 40L22 45L30 37L28.59 35.58ZM24 30C18.48 30 14 34.48 14 40C14 45.52 18.48 50 24 50C29.52 50 34 45.52 34 40C34 34.48 29.52 30 24 30ZM24 48C19.58 48 16 44.42 16 40C16 35.58 19.58 32 24 32C28.42 32 32 35.58 32 40C32 44.42 28.42 48 24 48Z" fill="#00BB29"/>
<path d="M28.59 5.57999L22 12.17L18.41 8.58998L17 9.99998L22 15L30 6.99998L28.59 5.57999ZM24 0C18.48 0 14 4.47999 14 9.99998C14 15.52 18.48 20 24 20C29.52 20 34 15.52 34 9.99998C34 4.47999 29.52 0 24 0ZM24 18C19.58 18 16 14.42 16 9.99998C16 5.57999 19.58 2 24 2C28.42 2 32 5.57999 32 9.99998C32 14.42 28.42 18 24 18Z" fill="#00BB29"/>
<path d="M28.59 65.58L22 72.17L18.41 68.59L17 70L22 75L30 67L28.59 65.58ZM24 60C18.48 60 14 64.48 14 70C14 75.52 18.48 80 24 80C29.52 80 34 75.52 34 70C34 64.48 29.52 60 24 60ZM24 78C19.58 78 16 74.42 16 70C16 65.58 19.58 62 24 62C28.42 62 32 65.58 32 70C32 74.42 28.42 78 24 78Z" fill="#00BB29"/>
<path d="M105 40L85 28.453L85 51.547L105 40ZM44 42L87 42L87 38L44 38L44 42Z" fill="#DDDDDD"/>
<path d="M94 28.0214L90.9786 25L79 36.9786L67.0214 25L64 28.0214L75.9786 40L64 51.9786L67.0214 55L79 43.0214L90.9786 55L94 51.9786L82.0214 40L94 28.0214Z" fill="#E40000"/>
</svg>
