<svg width="160" height="80" viewBox="0 0 160 80" fill="none" xmlns="http://www.w3.org/2000/svg">
<path d="M33.59 35.58L27 42.17L23.41 38.59L22 40L27 45L35 37L33.59 35.58ZM29 30C23.48 30 19 34.48 19 40C19 45.52 23.48 50 29 50C34.52 50 39 45.52 39 40C39 34.48 34.52 30 29 30ZM29 48C24.58 48 21 44.42 21 40C21 35.58 24.58 32 29 32C33.42 32 37 35.58 37 40C37 44.42 33.42 48 29 48Z" fill="#00BB29"/>
<path d="M33.59 5.57999L27 12.17L23.41 8.58998L22 9.99998L27 15L35 6.99998L33.59 5.57999ZM29 0C23.48 0 19 4.47999 19 9.99998C19 15.52 23.48 20 29 20C34.52 20 39 15.52 39 9.99998C39 4.47999 34.52 0 29 0ZM29 18C24.58 18 21 14.42 21 9.99998C21 5.57999 24.58 2 29 2C33.42 2 37 5.57999 37 9.99998C37 14.42 33.42 18 29 18Z" fill="#00BB29"/>
<path d="M33.59 65.58L27 72.17L23.41 68.59L22 70L27 75L35 67L33.59 65.58ZM29 60C23.48 60 19 64.48 19 70C19 75.52 23.48 80 29 80C34.52 80 39 75.52 39 70C39 64.48 34.52 60 29 60ZM29 78C24.58 78 21 74.42 21 70C21 65.58 24.58 62 29 62C33.42 62 37 65.58 37 70C37 74.42 33.42 78 29 78Z" fill="#00BB29"/>
<path d="M110 40L90 28.453L90 51.547L110 40ZM49 42L92 42L92 38L49 38L49 42Z" fill="#231F20" fill-opacity="0.5"/>
<path d="M129.612 16.0737L136.171 20L134.43 12.6L140.224 7.62105L132.594 6.97895L129.612 0L126.63 6.97895L119 7.62105L124.794 12.6L123.054 20L129.612 16.0737Z" fill="#FFCC33"/>
<path d="M130.126 15.2157L129.612 14.9082L129.099 15.2157L124.569 17.9277L125.768 12.8289L125.907 12.2375L125.446 11.8415L121.461 8.41747L126.714 7.97543L127.313 7.92499L127.55 7.37187L129.612 2.54502L131.675 7.37187L131.911 7.92499L132.51 7.97543L137.763 8.41747L133.778 11.8415L133.318 12.2375L133.457 12.8289L134.656 17.9277L130.126 15.2157Z" stroke="#231F20" stroke-opacity="0.5" stroke-width="2"/>
<path d="M129.612 46.0737L136.171 50L134.43 42.6L140.224 37.6211L132.594 36.9789L129.612 30L126.63 36.9789L119 37.6211L124.794 42.6L123.054 50L129.612 46.0737Z" fill="#FFCC33"/>
<path d="M130.126 45.2157L129.612 44.9082L129.099 45.2157L124.569 47.9277L125.768 42.8289L125.907 42.2375L125.446 41.8415L121.461 38.4175L126.714 37.9754L127.313 37.925L127.55 37.3719L129.612 32.545L131.675 37.3719L131.911 37.925L132.51 37.9754L137.763 38.4175L133.778 41.8415L133.318 42.2375L133.457 42.8289L134.656 47.9277L130.126 45.2157Z" stroke="#231F20" stroke-opacity="0.5" stroke-width="2"/>
<path d="M129.612 76.0737L136.171 80L134.43 72.6L140.224 67.6211L132.594 66.9789L129.612 60L126.63 66.9789L119 67.6211L124.794 72.6L123.054 80L129.612 76.0737Z" fill="#FFCC33"/>
<path d="M130.126 75.2157L129.612 74.9082L129.099 75.2157L124.569 77.9277L125.768 72.8289L125.907 72.2375L125.446 71.8415L121.461 68.4175L126.714 67.9754L127.313 67.925L127.55 67.3719L129.612 62.545L131.675 67.3719L131.911 67.925L132.51 67.9754L137.763 68.4175L133.778 71.8415L133.318 72.2375L133.457 72.8289L134.656 77.9277L130.126 75.2157Z" stroke="#231F20" stroke-opacity="0.5" stroke-width="2"/>
</svg>
